name rise38.3101peak57.3503fall81.6963.mot
datacolumns 19
datarows 23
range 1.28332900000000 1.32000200000000
endheader
time	ground_force1_vx	ground_force1_vy	ground_force1_vz	ground_force1_px	ground_force1_py	ground_force1_pz	ground_force2_vx	ground_force2_vy	ground_force2_vz	ground_force2_px	ground_force2_py	ground_force2_pz	ground_torque1_x	ground_torque1_y	ground_torque1_z	ground_torque2_x	ground_torque2_y	ground_torque2_z	
1.28332900000000	-50.20940200000000	847.67581299999995	56.77031600000000	0.11684700000000	0.00000000000000	0.10253600000000	-5.41204000000000	59.90513400000000	10.77327100000000	0.38766500000000	0.00000000000000	-0.06958600000000	0.00000000000000	23.63925200000000	0.00000000000000	0.00000000000000	7.80976900000000	0.00000000000000	
1.28500100000000	-50.32551500000000	845.30686200000002	56.60542000000000	0.11645800000000	0.00000000000000	0.10248200000000	-5.76365600000000	64.91486300000000	11.45999600000000	0.38961600000000	0.00000000000000	-0.06997500000000	0.00000000000000	23.51194100000000	0.00000000000000	0.00000000000000	8.33389800000000	0.00000000000000	
1.28666400000000	-50.45160800000000	842.78390400000001	56.40832700000000	0.11607700000000	0.00000000000000	0.10242600000000	-6.05866800000000	69.64044199999999	12.05109800000000	0.39143500000000	0.00000000000000	-0.07035100000000	0.00000000000000	23.38256500000000	0.00000000000000	0.00000000000000	8.79205100000000	0.00000000000000	
1.28833500000000	-50.58863300000000	840.10765800000001	56.17868700000000	0.11570100000000	0.00000000000000	0.10236600000000	-6.29558000000000	74.09702600000000	12.54950400000000	0.39313200000000	0.00000000000000	-0.07071600000000	0.00000000000000	23.25133600000000	0.00000000000000	0.00000000000000	9.18622300000000	0.00000000000000	
1.28999900000000	-50.73749600000000	837.27891599999998	55.91622500000000	0.11533200000000	0.00000000000000	0.10230400000000	-6.47483600000000	78.31811800000000	12.96192300000000	0.39471500000000	0.00000000000000	-0.07107100000000	0.00000000000000	23.11846500000000	0.00000000000000	0.00000000000000	9.52123700000000	0.00000000000000	
1.29167000000000	-50.89904500000000	834.29853800000001	55.62073400000000	0.11496800000000	0.00000000000000	0.10223800000000	-6.59834200000000	82.35041099999999	13.29771300000000	0.39619100000000	0.00000000000000	-0.07141800000000	0.00000000000000	22.98415600000000	0.00000000000000	0.00000000000000	9.80392700000000	0.00000000000000	
1.29333700000000	-51.07407200000000	831.16743899999994	55.29208300000000	0.11460800000000	0.00000000000000	0.10216800000000	-6.66897800000000	86.24843900000000	13.56774300000000	0.39756600000000	0.00000000000000	-0.07175800000000	0.00000000000000	22.84860600000000	0.00000000000000	0.00000000000000	10.04229600000000	0.00000000000000	
1.29499500000000	-51.26330300000000	827.88658399999997	54.93021400000000	0.11425300000000	0.00000000000000	0.10209600000000	-6.69010700000000	90.06951200000000	13.78331800000000	0.39884600000000	0.00000000000000	-0.07209200000000	0.00000000000000	22.71200800000000	0.00000000000000	0.00000000000000	10.24471800000000	0.00000000000000	
1.29666600000000	-51.46739500000000	824.45697199999995	54.53514200000000	0.11390100000000	0.00000000000000	0.10202000000000	-6.66515200000000	93.86928500000000	13.95525500000000	0.40003600000000	0.00000000000000	-0.07242200000000	0.00000000000000	22.57454600000000	0.00000000000000	0.00000000000000	10.41925300000000	0.00000000000000	
1.29833500000000	-51.68693100000000	820.87963300000001	54.10695700000000	0.11355100000000	0.00000000000000	0.10194100000000	-6.59723500000000	97.69819900000000	14.09315800000000	0.40114000000000	0.00000000000000	-0.07274700000000	0.00000000000000	22.43639500000000	0.00000000000000	0.00000000000000	10.57309000000000	0.00000000000000	
1.30000400000000	-51.92241500000000	817.15561600000001	53.64582400000000	0.11320400000000	0.00000000000000	0.10185800000000	-6.48891800000000	101.59892300000000	14.20490800000000	0.40216200000000	0.00000000000000	-0.07307000000000	0.00000000000000	22.29772100000000	0.00000000000000	0.00000000000000	10.71216700000000	0.00000000000000	
1.30167000000000	-52.17426700000000	813.28598000000000	53.15197800000000	0.11285800000000	0.00000000000000	0.10177200000000	-6.34203300000000	105.60480800000001	14.29637000000000	0.40310600000000	0.00000000000000	-0.07339000000000	0.00000000000000	22.15867900000000	0.00000000000000	0.00000000000000	10.84093600000000	0.00000000000000	
1.30332900000000	-52.44281800000000	809.27178700000002	52.62573000000000	0.11251200000000	0.00000000000000	0.10168300000000	-6.15760900000000	109.73929300000000	14.37130500000000	0.40397400000000	0.00000000000000	-0.07370800000000	0.00000000000000	22.01941600000000	0.00000000000000	0.00000000000000	10.96229600000000	0.00000000000000	
1.30499900000000	-52.72831000000000	805.11409600000002	52.06746200000000	0.11216700000000	0.00000000000000	0.10159000000000	-5.93587500000000	114.01613800000000	14.43145100000000	0.40477100000000	0.00000000000000	-0.07402500000000	0.00000000000000	21.88006500000000	0.00000000000000	0.00000000000000	11.07764100000000	0.00000000000000	
1.30666900000000	-53.03088500000000	800.81395199999997	51.47762600000000	0.11182000000000	0.00000000000000	0.10149400000000	-5.67632900000000	118.44030900000000	14.47674400000000	0.40549800000000	0.00000000000000	-0.07434000000000	0.00000000000000	21.74074800000000	0.00000000000000	0.00000000000000	11.18702000000000	0.00000000000000	
1.30833700000000	-53.35058700000000	796.37238200000002	50.85674500000000	0.11147200000000	0.00000000000000	0.10139400000000	-5.37785900000000	123.00933000000001	14.50562600000000	0.40615800000000	0.00000000000000	-0.07465500000000	0.00000000000000	21.60157400000000	0.00000000000000	0.00000000000000	11.28936500000000	0.00000000000000	
1.31000200000000	-53.68735700000000	791.79038900000000	50.20541000000000	0.11112200000000	0.00000000000000	0.10129100000000	-5.03889100000000	127.71492499999999	14.51541400000000	0.40675400000000	0.00000000000000	-0.07496900000000	0.00000000000000	21.46263800000000	0.00000000000000	0.00000000000000	11.38276600000000	0.00000000000000	
1.31166700000000	-54.04102800000000	787.06894399999999	49.52427500000000	0.11076900000000	0.00000000000000	0.10118400000000	-4.65755800000000	132.54475400000001	14.50268000000000	0.40728800000000	0.00000000000000	-0.07528300000000	0.00000000000000	21.32402100000000	0.00000000000000	0.00000000000000	11.46474600000000	0.00000000000000	
1.31333300000000	-54.41132500000000	782.20898599999998	48.81406400000000	0.11041200000000	0.00000000000000	0.10107400000000	-4.23185600000000	137.48411999999999	14.46361900000000	0.40776100000000	0.00000000000000	-0.07559600000000	0.00000000000000	21.18579300000000	0.00000000000000	0.00000000000000	11.53254600000000	0.00000000000000	
1.31499700000000	-54.79786000000000	777.21141200000000	48.07555800000000	0.11005000000000	0.00000000000000	0.10096100000000	-3.75980400000000	142.51750200000001	14.39438100000000	0.40817700000000	0.00000000000000	-0.07591000000000	0.00000000000000	21.04800500000000	0.00000000000000	0.00000000000000	11.58336600000000	0.00000000000000	
1.31667000000000	-55.20013200000000	772.07707800000003	47.30960200000000	0.10968400000000	0.00000000000000	0.10084400000000	-3.23956800000000	147.62986200000000	14.29134200000000	0.40853600000000	0.00000000000000	-0.07622300000000	0.00000000000000	20.91069500000000	0.00000000000000	0.00000000000000	11.61457200000000	0.00000000000000	
1.31833600000000	-55.61752500000000	766.80679599999996	46.51709600000000	0.10931100000000	0.00000000000000	0.10072400000000	-2.66956800000000	152.80764700000000	14.15131700000000	0.40884100000000	0.00000000000000	-0.07653600000000	0.00000000000000	20.77388500000000	0.00000000000000	0.00000000000000	11.62385100000000	0.00000000000000	
1.32000200000000	-56.04930700000000	761.40133200000002	45.69899800000000	0.10893200000000	0.00000000000000	0.10060100000000	-2.04855400000000	158.03948700000001	13.97169700000000	0.40909300000000	0.00000000000000	-0.07684900000000	0.00000000000000	20.63758300000000	0.00000000000000	0.00000000000000	11.60932000000000	0.00000000000000	
